<svg width="32" height="33" viewBox="0 0 32 33" fill="none" xmlns="http://www.w3.org/2000/svg">
<path d="M0 11.04V16.9642C2.01585 16.9628 4.01219 17.3606 5.87479 18.1348C7.73739 18.909 9.4297 20.0445 10.8549 21.4762C12.2797 22.9074 13.4097 24.6066 14.1802 26.4767C14.9507 28.3467 15.3466 30.3509 15.3453 32.3747H21.2402C21.2349 26.7188 18.9955 21.296 15.0135 17.2962C11.0314 13.2965 5.632 11.0465 0 11.04H0Z" fill="white"/>
<path d="M29.4808 0.375H20.1387C24.8647 3.38268 28.8692 7.40362 31.8648 12.1493V2.76741C31.8643 2.13275 31.613 1.52424 31.166 1.07562C30.7189 0.627003 30.1128 0.375 29.4808 0.375Z" fill="white"/>
<path d="M5.86977 0.375H0V5.70888C7.04017 5.71623 13.7899 8.52802 18.7681 13.5273C23.7464 18.5265 26.5465 25.3048 26.554 32.3749H31.8645V26.4802C30.6638 20.0015 27.5376 14.0398 22.8976 9.38002C18.2575 4.72023 12.321 1.58078 5.86977 0.375Z" fill="white"/>
</svg>
