<svg width="251" height="105" viewBox="0 0 251 105" fill="none" xmlns="http://www.w3.org/2000/svg">
<g clip-path="url(#clip0_60_398)">
<path d="M58.6031 57.751L58.7415 75.9376C58.7524 77.3938 58.7788 78.3085 58.8207 78.6817C58.8321 78.8516 58.881 79.0168 58.964 79.1655C59.0469 79.3143 59.1618 79.4428 59.3003 79.5418C59.7558 79.7794 60.2707 79.8794 60.782 79.8294H61.1807L61.188 80.5939L53.9068 80.6485L53.9004 79.884H54.3664C54.8565 79.9181 55.3467 79.8194 55.7853 79.5982C55.9205 79.5134 56.0354 79.4001 56.122 79.2661C56.2087 79.1321 56.2649 78.9808 56.2868 78.8228C56.359 77.8707 56.3794 76.9155 56.3478 75.9612L56.2458 62.491C56.329 61.5726 56.1911 60.6476 55.8436 59.7934C55.5869 59.4232 54.9647 59.2412 53.9768 59.2473L53.9714 58.4827C54.7718 58.465 55.5694 58.381 56.356 58.2315C56.9996 58.1423 57.6312 57.9814 58.2391 57.7519L58.6031 57.751Z" fill="#1C3554"/>
<path d="M62.9311 73.7498C62.8982 72.7819 63.0633 71.8174 63.4162 70.9155C63.7691 70.0135 64.3024 69.1932 64.9835 68.5046C66.3534 67.1447 68.2016 66.3759 70.1318 66.363C72.0619 66.35 73.9203 67.0941 75.3083 68.4354C75.9987 69.1127 76.5439 69.9235 76.9107 70.8184C77.2775 71.7133 77.4582 72.6736 77.4417 73.6406C77.5026 74.6414 77.3483 75.6436 76.9891 76.5796C76.6298 77.5157 76.0741 78.3639 75.3592 79.0669C73.9799 80.3796 72.1418 81.1005 70.2378 81.0756C69.2935 81.1021 68.3533 80.9423 67.4708 80.6053C66.5883 80.2683 65.7808 79.7607 65.0946 79.1115C64.3755 78.4215 63.8108 77.5868 63.4379 76.6626C63.065 75.7384 62.8923 74.7456 62.9311 73.7498ZM65.6907 73.8117C65.7089 76.2278 66.1151 77.9177 66.9094 78.8812C67.3127 79.3621 67.823 79.742 68.3993 79.9904C68.9757 80.2388 69.6022 80.349 70.2287 80.312C70.86 80.3449 71.4902 80.2278 72.0675 79.9705C72.6449 79.7131 73.1532 79.3227 73.5508 78.8312C74.3135 77.8561 74.686 76.1602 74.6684 73.7434C74.649 71.3497 74.2546 69.6459 73.4852 68.632C73.0918 68.1256 72.5801 67.7235 71.995 67.4609C71.41 67.1982 70.7694 67.0832 70.1295 67.1257C69.4912 67.0941 68.8548 67.2184 68.2753 67.488C67.6958 67.7576 67.1908 68.1643 66.8038 68.673C66.0448 69.6936 65.6737 71.4065 65.6907 73.8117Z" fill="#1C3554"/>
<path d="M90.318 67.9574C90.6485 67.499 91.0739 67.1171 91.5651 66.8377C92.0564 66.5584 92.602 66.388 93.1649 66.3382C93.3898 66.3228 93.6155 66.3524 93.8288 66.4253C94.0421 66.4981 94.2388 66.6127 94.4073 66.7624C94.543 66.8803 94.6528 67.025 94.7299 67.1874C94.807 67.3499 94.8496 67.5265 94.8551 67.7062C94.8605 68.4379 94.5308 68.8062 93.8658 68.8111C93.6605 68.7958 93.4634 68.7248 93.2955 68.6058C93.1276 68.4868 92.9953 68.3243 92.9128 68.1358C92.6653 67.718 92.4095 67.5078 92.1437 67.5096C91.8643 67.5522 91.5966 67.6521 91.3574 67.8029C91.1183 67.9537 90.9129 68.1522 90.7539 68.3861C91.3215 69.2424 91.6291 70.2448 91.6395 71.2721C91.655 72.5888 91.1511 73.8585 90.237 74.8063C89.291 75.845 87.6883 76.4118 85.4287 76.5064C83.0799 76.6011 81.9085 77.0865 81.9146 77.9627C81.9182 78.3722 82.1864 78.658 82.7192 78.82C83.8004 79.0648 84.9053 79.1903 86.0139 79.1941C87.4346 79.2207 88.8496 79.3801 90.2406 79.6701C91.0385 79.8756 91.7617 80.3031 92.3265 80.9029C92.8912 81.5028 93.2744 82.2504 93.4315 83.0592C93.5886 83.8679 93.5132 84.7046 93.2141 85.4723C92.9149 86.24 92.4043 86.9071 91.7415 87.3964C90.217 88.4022 88.409 88.8899 86.5855 88.7871C84.8538 88.8837 83.1308 88.4809 81.6215 87.6266C81.0687 87.337 80.6028 86.9055 80.2718 86.3764C79.9407 85.8473 79.7563 85.2397 79.7375 84.6158C79.7077 84.0162 79.8915 83.4254 80.2563 82.9485C80.4396 82.7292 80.6713 82.5555 80.9332 82.441C81.195 82.3265 81.4799 82.2743 81.7653 82.2886C81.9296 82.286 82.093 82.3132 82.2477 82.3687C81.6146 83.0098 81.2519 83.8697 81.2347 84.7706C81.2417 85.2571 81.3731 85.7337 81.6164 86.1551C81.8597 86.5764 82.2067 86.9286 82.6245 87.1779C83.8693 87.8904 85.2991 88.2132 86.7293 88.1045C88.061 88.1721 89.3806 87.8221 90.5037 87.1033C90.9192 86.8325 91.2596 86.461 91.4932 86.0234C91.7268 85.5859 91.846 85.0964 91.8398 84.6004C91.8771 84.1346 91.7813 83.6678 91.5634 83.2545C91.3455 82.8411 91.0146 82.4982 90.6092 82.2658C89.2336 81.7189 87.7603 81.4602 86.2806 81.5059C83.8978 81.4233 82.3505 81.1412 81.6388 80.6594C81.3147 80.4737 81.0447 80.2065 80.8555 79.8844C80.6663 79.5623 80.5646 79.1963 80.5603 78.8227C80.5494 77.3701 81.5569 76.4479 83.5829 76.0559C82.6333 75.5429 81.8128 74.8205 81.1837 73.9434C80.6477 73.1563 80.3622 72.2254 80.3646 71.2731C80.3543 70.5999 80.4934 69.9329 80.772 69.32C81.0505 68.7072 81.4616 68.1637 81.9756 67.7289C83.0311 66.7614 84.4146 66.2308 85.8464 66.2445C86.6701 66.2011 87.4938 66.3312 88.2641 66.6262C89.0343 66.9213 89.7341 67.3748 90.318 67.9574ZM82.8648 71.6371C82.7798 72.7563 83.1006 73.8687 83.7686 74.7708C84.0471 75.0815 84.3884 75.3295 84.77 75.4985C85.1515 75.6676 85.5646 75.7537 85.9819 75.7513C86.3991 75.7489 86.8112 75.658 87.1907 75.4846C87.5703 75.3112 87.9087 75.0592 88.1837 74.7453C88.8809 73.7419 89.193 72.5207 89.0629 71.3058C89.0508 69.6676 88.7213 68.5396 88.0745 67.9219C87.7894 67.6319 87.4494 67.4016 87.0744 67.2444C86.6993 67.0872 86.2968 67.0062 85.8901 67.0063C85.4404 66.9835 84.9927 67.0792 84.5916 67.2838C84.1905 67.4884 83.8502 67.7948 83.6047 68.1722C83.0314 69.2325 82.7745 70.4351 82.8648 71.6371Z" fill="#1C3554"/>
<path d="M95.9121 73.4967C95.8793 72.5288 96.0447 71.5645 96.3981 70.6628C96.7515 69.7611 97.2855 68.9412 97.9672 68.2534C99.3361 66.8922 101.184 66.1223 103.115 66.1091C105.045 66.0958 106.904 66.8402 108.291 68.1824C108.981 68.8597 109.527 69.6706 109.893 70.5654C110.26 71.4603 110.441 72.4205 110.424 73.3875C110.485 74.3889 110.33 75.3916 109.97 76.3279C109.61 77.2642 109.053 78.1123 108.337 78.8147C106.958 80.1272 105.12 80.8479 103.216 80.8225C102.272 80.8503 101.332 80.6918 100.449 80.3562C99.5668 80.0206 98.7589 79.5145 98.0719 78.8666C97.3523 78.1754 96.7876 77.3394 96.4153 76.4136C96.0429 75.4879 95.8714 74.4937 95.9121 73.4967ZM98.6726 73.5595C98.6908 75.9757 99.0967 77.6658 99.8904 78.63C100.317 79.0858 100.833 79.4482 101.407 79.6944C101.981 79.9406 102.599 80.0653 103.224 80.0605C103.848 80.0557 104.464 79.9216 105.034 79.6666C105.604 79.4116 106.115 79.0413 106.534 78.579C107.298 77.6045 107.67 75.9086 107.652 73.4913C107.633 71.0976 107.238 69.3941 106.469 68.3808C106.052 67.9045 105.537 67.5235 104.96 67.2638C104.382 67.0041 103.756 66.8717 103.122 66.8756C102.489 66.8795 101.864 67.0195 101.29 67.2863C100.716 67.5531 100.206 67.9404 99.7948 68.4217C99.0278 69.4448 98.6538 71.1586 98.6726 73.5632V73.5595Z" fill="#1C3554"/>
<path d="M117.272 65.5657L117.346 75.3552C117.357 76.8515 117.387 77.7941 117.437 78.1831C117.452 78.3586 117.505 78.5289 117.592 78.682C117.679 78.8352 117.798 78.9677 117.941 79.0705C118.411 79.3144 118.942 79.4174 119.469 79.3672H119.833L119.84 80.1563L112.279 80.2127L112.273 79.4236L112.856 79.419C113.41 79.4821 113.968 79.3536 114.439 79.055C114.675 78.8329 114.825 78.5338 114.861 78.2113C114.899 77.8854 114.912 76.9395 114.9 75.3734L114.86 71.1212C114.915 70.1092 114.83 69.0945 114.607 68.1059C114.557 67.9548 114.475 67.816 114.368 67.6985C114.26 67.5811 114.129 67.4876 113.983 67.4242C113.543 67.3156 113.09 67.273 112.638 67.2977H112.174L112.168 66.5086C113.774 66.3766 115.36 66.0595 116.893 65.5638L117.272 65.5657ZM113.905 58.4237C113.9 58.1876 113.943 57.9529 114.031 57.7339C114.119 57.5148 114.251 57.316 114.419 57.1495C114.579 56.9772 114.773 56.8402 114.989 56.7471C115.205 56.654 115.439 56.6069 115.674 56.6089C115.908 56.6032 116.141 56.6467 116.357 56.7366C116.573 56.8264 116.769 56.9605 116.93 57.1304C117.097 57.2955 117.23 57.4924 117.32 57.7095C117.409 57.9266 117.455 58.1596 117.453 58.3946C117.46 58.6326 117.418 58.8695 117.332 59.0913C117.245 59.3131 117.115 59.5154 116.949 59.6861C116.79 59.858 116.597 59.9948 116.383 60.0877C116.168 60.1806 115.936 60.2277 115.702 60.2258C115.467 60.2308 115.233 60.1871 115.015 60.0973C114.798 60.0076 114.601 59.8737 114.438 59.7043C114.268 59.5375 114.134 59.3381 114.043 59.118C113.952 58.898 113.906 58.6618 113.909 58.4237H113.905Z" fill="#1C3554"/>
<path d="M124.73 65.5085H125.193C125.407 66.2605 125.51 67.0395 125.501 67.8212C126.161 67.0881 126.957 66.4908 127.845 66.0628C129.094 65.4974 130.486 65.3303 131.833 65.5842C133.18 65.8381 134.417 66.5006 135.374 67.4817C136.719 68.9487 137.429 70.8876 137.352 72.8762C137.432 74.8891 136.752 76.8585 135.448 78.3935C134.818 79.1241 134.033 79.705 133.151 80.0941C132.268 80.4831 131.31 80.6705 130.346 80.6425C129.488 80.6514 128.637 80.48 127.849 80.1392C127.007 79.7679 126.239 79.2481 125.582 78.6047L125.622 83.9363C125.603 84.9259 125.643 85.9157 125.739 86.9007C125.765 87.0655 125.827 87.2224 125.921 87.3598C126.016 87.4972 126.14 87.6115 126.285 87.6943C126.812 87.9096 127.383 87.9963 127.95 87.9473L127.956 88.7364L120.619 88.7874L120.612 87.9983H121.126C121.68 88.0608 122.239 87.9324 122.71 87.6342C122.947 87.4128 123.097 87.1133 123.131 86.7905C123.17 86.4659 123.183 85.5203 123.171 83.9536L123.075 71.1988C123.064 69.7025 123.037 68.7596 122.993 68.37C122.981 68.1949 122.93 68.0246 122.845 67.8714C122.759 67.7181 122.641 67.5857 122.498 67.4835C122.028 67.2394 121.497 67.1363 120.97 67.1868H120.456L120.449 66.3977C121.897 66.2118 123.328 65.9145 124.73 65.5085ZM125.574 77.4697C126.119 78.1543 126.79 78.7283 127.55 79.1608C128.219 79.5326 128.974 79.7248 129.739 79.7187C130.391 79.7079 131.032 79.5507 131.615 79.2586C132.198 78.9665 132.708 78.547 133.107 78.0313C134.059 76.9142 134.525 75.1446 134.506 72.7224C134.624 71.0328 134.117 69.3588 133.083 68.0178C132.677 67.5332 132.169 67.1443 131.595 66.879C131.021 66.6137 130.395 66.4786 129.763 66.4833C128.974 66.4887 128.201 66.7015 127.521 67.1004C126.738 67.5749 126.055 68.1968 125.509 68.9316L125.574 77.4697Z" fill="#1C3554"/>
<path d="M140.22 80.4457L140.185 75.8349L140.854 75.8285C141.651 78.4855 143.05 79.8068 145.051 79.7922C145.414 79.8165 145.778 79.7566 146.115 79.6172C146.451 79.4779 146.751 79.2627 146.99 78.9886C147.399 78.5028 147.622 77.8878 147.62 77.2529C147.63 76.922 147.572 76.5925 147.452 76.2841C147.332 75.9756 147.151 75.6944 146.92 75.4572C146.094 74.7686 145.172 74.2041 144.183 73.7816C143.048 73.2893 142.009 72.6004 141.114 71.7465C140.492 71.0866 140.153 70.2089 140.171 69.3018C140.18 68.3307 140.524 67.3925 141.145 66.646C141.474 66.2263 141.898 65.8911 142.382 65.6682C142.867 65.4454 143.397 65.3412 143.929 65.3645C144.517 65.3524 145.099 65.4792 145.629 65.7344C146.158 65.9896 146.62 66.3662 146.977 66.8335C147.26 66.4514 147.482 66.0273 147.635 65.5766H148.272L148.304 69.9144L147.667 69.9189C147.454 68.9266 146.989 68.0058 146.318 67.2449C146.036 66.8992 145.68 66.6206 145.277 66.4295C144.874 66.2383 144.433 66.1394 143.987 66.14C143.681 66.129 143.376 66.1808 143.091 66.2921C142.806 66.4034 142.546 66.5718 142.329 66.7871C142.129 66.9779 141.971 67.2076 141.864 67.462C141.757 67.7164 141.703 67.9901 141.706 68.2661C141.706 68.5663 141.77 68.8632 141.893 69.1371C142.016 69.411 142.195 69.6557 142.42 69.8552C143.209 70.5074 144.099 71.0274 145.054 71.3952C147.005 72.2616 148.2 73.1111 148.64 73.9436C149.054 74.6882 149.284 75.5211 149.31 76.3728C149.335 76.9267 149.243 77.4797 149.039 77.9953C148.835 78.511 148.524 78.9776 148.127 79.3644C147.723 79.7499 147.247 80.0518 146.727 80.2528C146.206 80.4538 145.651 80.55 145.093 80.5358C144.438 80.5346 143.791 80.3943 143.195 80.1241C142.599 79.8539 142.067 79.46 141.634 78.9685C141.281 79.4018 141.028 79.9069 140.89 80.4484L140.22 80.4457Z" fill="#1C3554"/>
<path d="M165.655 65.7666L165.724 74.9728C165.735 76.5042 165.765 77.4638 165.815 77.8516C165.829 78.0263 165.882 78.1955 165.971 78.3466C166.06 78.4976 166.182 78.6265 166.328 78.7235C166.817 78.9556 167.359 79.0518 167.898 79.002L167.905 79.7911C166.613 79.752 165.325 79.9472 164.103 80.3672H163.897C163.443 79.3454 163.235 78.2312 163.29 77.1143C162.697 78.1072 161.885 78.9519 160.917 79.5845C160.026 80.139 158.997 80.4314 157.948 80.4282C157.076 80.4526 156.215 80.2372 155.457 79.8057C154.806 79.4586 154.282 78.9128 153.962 78.2475C153.643 77.3532 153.499 76.4057 153.538 75.457L153.503 70.6741C153.519 69.6812 153.483 68.688 153.394 67.6988C153.372 67.533 153.312 67.3748 153.217 67.2371C153.122 67.0995 152.995 66.9863 152.848 66.907C152.316 66.6991 151.744 66.6154 151.174 66.6622L151.168 65.8731L155.934 65.8367L156.007 75.5753C155.989 76.278 156.052 76.9805 156.196 77.6686C156.342 78.1408 156.656 78.5436 157.078 78.8018C157.559 79.1271 158.13 79.2936 158.71 79.2778C159.621 79.2596 160.503 78.9495 161.224 78.3931C161.917 77.9299 162.476 77.2936 162.847 76.5473C163.173 75.6608 163.314 74.7172 163.264 73.7741L163.24 70.6031C163.229 69.0717 163.205 68.14 163.167 67.8081C163.129 67.4764 162.971 67.17 162.723 66.9462C162.245 66.6451 161.678 66.519 161.118 66.5894H160.754L160.748 65.8003L165.655 65.7666Z" fill="#1C3554"/>
<path d="M173.604 65.1406H173.775C174.144 66.0769 174.321 67.078 174.294 68.084C174.955 67.1837 175.791 66.4259 176.751 65.856C177.619 65.3607 178.601 65.0989 179.6 65.096C180.599 65.042 181.588 65.3114 182.422 65.8642C183.188 66.4482 183.728 67.2805 183.949 68.2187C184.684 67.2705 185.584 66.4621 186.606 65.8323C187.446 65.3193 188.408 65.0396 189.392 65.0223C190.367 64.9841 191.331 65.2397 192.159 65.7559C192.819 66.1298 193.313 66.7385 193.544 67.4606C193.745 68.4814 193.833 69.5213 193.807 70.5615L193.839 74.7791C193.82 75.7744 193.859 76.7699 193.955 77.7607C193.98 77.9257 194.043 78.0825 194.14 78.2188C194.236 78.3551 194.362 78.4672 194.509 78.5462C195.047 78.755 195.626 78.8381 196.2 78.7892L196.206 79.5783L189.198 79.632L189.192 78.8429C189.727 78.8761 190.262 78.7871 190.758 78.5826C190.902 78.5068 191.026 78.3989 191.122 78.2673C191.217 78.1357 191.282 77.9839 191.309 77.8235C191.4 76.8178 191.427 75.8073 191.389 74.7982L191.355 70.1173C191.367 69.3991 191.306 68.6816 191.173 67.9757C191.045 67.4751 190.74 67.038 190.314 66.7461C189.789 66.3883 189.162 66.2124 188.528 66.2455C187.723 66.2717 186.945 66.5407 186.296 67.0173C185.426 67.652 184.67 68.4286 184.058 69.3146L184.101 74.8528C184.112 76.3491 184.138 77.2896 184.181 77.6743C184.194 77.8486 184.244 78.0181 184.328 78.1714C184.413 78.3246 184.529 78.458 184.669 78.5626C185.127 78.8135 185.651 78.9201 186.171 78.8684L186.178 79.6575L179.387 79.7085L179.382 78.9194C179.927 78.9531 180.474 78.8674 180.983 78.6682C181.126 78.595 181.251 78.4902 181.348 78.3617C181.445 78.2332 181.512 78.0844 181.543 77.9264C181.644 76.9121 181.674 75.8922 181.634 74.8737L181.604 70.9819C181.619 70.0849 181.563 69.1882 181.439 68.2997C181.329 67.7325 181.01 67.2271 180.546 66.8835C180.019 66.4827 179.368 66.2786 178.706 66.3065C177.933 66.3318 177.183 66.5747 176.542 67.0073C175.693 67.5779 174.937 68.2778 174.304 69.0816L174.349 74.9284C174.36 76.4708 174.39 77.431 174.44 77.809C174.455 77.9814 174.51 78.1478 174.601 78.2957C174.691 78.4435 174.813 78.5687 174.959 78.6618C175.458 78.894 176.009 78.9904 176.557 78.9412L176.562 79.7303L169.689 79.7813L169.682 78.9922C170.223 79.0261 170.764 78.9371 171.266 78.7319C171.409 78.6571 171.533 78.5508 171.628 78.421C171.724 78.2912 171.788 78.1414 171.818 77.9828C171.908 76.9737 171.935 75.9599 171.898 74.9475L171.866 70.7471C171.854 69.1459 171.821 68.1656 171.767 67.8064C171.746 67.6389 171.687 67.4784 171.593 67.3378C171.5 67.1972 171.375 67.0803 171.229 66.9964C170.712 66.7766 170.15 66.6866 169.59 66.7343L169.584 65.9452C170.949 65.8241 172.297 65.5543 173.604 65.1406Z" fill="#1C3554"/>
<path d="M183.422 49.1653H150.342V16.0859C159.115 16.0859 167.529 19.571 173.733 25.7746C179.936 31.9782 183.422 40.392 183.422 49.1653Z" fill="#1C3554"/>
<path d="M83.2237 49.1653H66.6836V32.6252C66.6838 28.2386 68.4266 24.0318 71.5284 20.9301C74.6303 17.8284 78.8372 16.0859 83.2237 16.0859C85.3958 16.0858 87.5466 16.5135 89.5533 17.3447C91.56 18.1758 93.3834 19.394 94.9193 20.9298C96.4552 22.4657 97.6736 24.289 98.5048 26.2957C99.3361 28.3024 99.7639 30.4531 99.7639 32.6252C99.7639 37.0119 98.0213 41.2189 94.9194 44.3208C91.8175 47.4227 87.6105 49.1653 83.2237 49.1653Z" fill="#1C3554"/>
<path d="M141.648 49.1655H108.568L108.457 15.9751L131.153 38.6706L141.648 49.1655Z" fill="#1C3554"/>
</g>
<defs>
<clipPath id="clip0_60_398">
<rect width="249.6" height="104" fill="white" transform="translate(0.599609 0.375)"/>
</clipPath>
</defs>
</svg>
