<svg width="250" height="105" viewBox="0 0 250 105" fill="none" xmlns="http://www.w3.org/2000/svg">
<g opacity="0.4" clip-path="url(#clip0_60_394)">
<path d="M58.2027 57.751L58.3411 75.9376C58.352 77.3938 58.3784 78.3085 58.4203 78.6817C58.4317 78.8516 58.4806 79.0168 58.5636 79.1655C58.6465 79.3143 58.7614 79.4428 58.8999 79.5418C59.3554 79.7794 59.8703 79.8794 60.3816 79.8294H60.7803L60.7876 80.5939L53.5064 80.6485L53.5 79.884H53.966C54.4561 79.9181 54.9463 79.8194 55.3849 79.5982C55.5201 79.5134 55.635 79.4001 55.7217 79.2661C55.8083 79.1321 55.8645 78.9808 55.8864 78.8228C55.9586 77.8707 55.979 76.9155 55.9474 75.9612L55.8455 62.491C55.9286 61.5726 55.7907 60.6476 55.4432 59.7934C55.1865 59.4232 54.5643 59.2412 53.5765 59.2473L53.571 58.4827C54.3714 58.465 55.169 58.381 55.9556 58.2315C56.5992 58.1423 57.2308 57.9814 57.8387 57.7519L58.2027 57.751Z" fill="#1C3554"/>
<path d="M62.5307 73.7498C62.4978 72.7819 62.6629 71.8174 63.0158 70.9155C63.3687 70.0135 63.902 69.1932 64.5831 68.5046C65.953 67.1447 67.8012 66.3759 69.7314 66.363C71.6616 66.35 73.5199 67.0941 74.9079 68.4354C75.5983 69.1127 76.1435 69.9235 76.5103 70.8184C76.8771 71.7133 77.0578 72.6736 77.0413 73.6406C77.1022 74.6414 76.9479 75.6436 76.5887 76.5796C76.2295 77.5157 75.6737 78.3639 74.9588 79.0669C73.5795 80.3796 71.7414 81.1005 69.8374 81.0756C68.8931 81.1021 67.9529 80.9423 67.0704 80.6053C66.1879 80.2683 65.3804 79.7607 64.6942 79.1115C63.9751 78.4215 63.4105 77.5868 63.0375 76.6626C62.6646 75.7384 62.4919 74.7456 62.5307 73.7498ZM65.2903 73.8117C65.3085 76.2278 65.7148 77.9177 66.509 78.8812C66.9123 79.3621 67.4226 79.742 67.9989 79.9904C68.5753 80.2388 69.2018 80.349 69.8283 80.312C70.4596 80.3449 71.0898 80.2278 71.6672 79.9705C72.2446 79.7131 72.7528 79.3227 73.1504 78.8312C73.9131 77.8561 74.2856 76.1602 74.268 73.7434C74.2486 71.3497 73.8542 69.6459 73.0848 68.632C72.6914 68.1256 72.1797 67.7235 71.5946 67.4609C71.0096 67.1982 70.369 67.0832 69.7291 67.1257C69.0908 67.0941 68.4544 67.2184 67.8749 67.488C67.2954 67.7576 66.7904 68.1643 66.4034 68.673C65.6444 69.6936 65.2733 71.4065 65.2903 73.8117Z" fill="#1C3554"/>
<path d="M89.9176 67.9574C90.2481 67.499 90.6735 67.1171 91.1647 66.8377C91.656 66.5584 92.2016 66.388 92.7645 66.3382C92.9894 66.3228 93.2151 66.3524 93.4284 66.4253C93.6417 66.4981 93.8384 66.6127 94.0069 66.7624C94.1426 66.8803 94.2524 67.025 94.3295 67.1874C94.4066 67.3499 94.4492 67.5265 94.4547 67.7062C94.4602 68.4379 94.1304 68.8062 93.4654 68.8111C93.2601 68.7958 93.063 68.7248 92.8951 68.6058C92.7272 68.4868 92.5949 68.3243 92.5124 68.1358C92.2649 67.718 92.0091 67.5078 91.7434 67.5096C91.4639 67.5522 91.1962 67.6521 90.9571 67.8029C90.7179 67.9537 90.5125 68.1522 90.3536 68.3861C90.9212 69.2424 91.2287 70.2448 91.2391 71.2721C91.2546 72.5888 90.7507 73.8585 89.8366 74.8063C88.8906 75.845 87.2879 76.4118 85.0283 76.5064C82.6795 76.6011 81.5081 77.0865 81.5142 77.9627C81.5178 78.3722 81.786 78.658 82.3188 78.82C83.4 79.0648 84.5049 79.1903 85.6135 79.1941C87.0342 79.2207 88.4492 79.3801 89.8402 79.6701C90.6381 79.8756 91.3613 80.3031 91.9261 80.9029C92.4908 81.5028 92.874 82.2504 93.0311 83.0592C93.1882 83.8679 93.1128 84.7046 92.8137 85.4723C92.5146 86.24 92.0039 86.9071 91.3411 87.3964C89.8166 88.4022 88.0086 88.8899 86.1851 88.7871C84.4534 88.8837 82.7305 88.4809 81.2211 87.6266C80.6683 87.337 80.2024 86.9055 79.8714 86.3764C79.5403 85.8473 79.3559 85.2397 79.3371 84.6158C79.3073 84.0162 79.4911 83.4254 79.8559 82.9485C80.0392 82.7292 80.2709 82.5555 80.5328 82.441C80.7946 82.3265 81.0795 82.2743 81.3649 82.2886C81.5292 82.286 81.6926 82.3132 81.8473 82.3687C81.2142 83.0098 80.8515 83.8697 80.8343 84.7706C80.8413 85.2571 80.9727 85.7337 81.216 86.1551C81.4593 86.5764 81.8063 86.9286 82.2241 87.1779C83.4689 87.8904 84.8987 88.2132 86.3289 88.1045C87.6606 88.1721 88.9802 87.8221 90.1033 87.1033C90.5188 86.8325 90.8592 86.461 91.0928 86.0234C91.3264 85.5859 91.4456 85.0964 91.4394 84.6004C91.4767 84.1346 91.3809 83.6678 91.163 83.2545C90.9451 82.8411 90.6142 82.4982 90.2088 82.2658C88.8332 81.7189 87.3599 81.4602 85.8802 81.5059C83.4974 81.4233 81.9501 81.1412 81.2384 80.6594C80.9143 80.4737 80.6443 80.2065 80.4551 79.8844C80.2659 79.5623 80.1642 79.1963 80.1599 78.8227C80.149 77.3701 81.1565 76.4479 83.1825 76.0559C82.2329 75.5429 81.4124 74.8205 80.7833 73.9434C80.2473 73.1563 79.9618 72.2254 79.9642 71.2731C79.9539 70.5999 80.093 69.9329 80.3716 69.32C80.6501 68.7072 81.0612 68.1637 81.5752 67.7289C82.6307 66.7614 84.0142 66.2308 85.446 66.2445C86.2697 66.2011 87.0934 66.3312 87.8637 66.6262C88.6339 66.9213 89.3337 67.3748 89.9176 67.9574ZM82.4644 71.6371C82.3794 72.7563 82.7002 73.8687 83.3682 74.7708C83.6467 75.0815 83.9881 75.3295 84.3696 75.4985C84.7511 75.6676 85.1642 75.7537 85.5815 75.7513C85.9988 75.7489 86.4108 75.658 86.7903 75.4846C87.1699 75.3112 87.5083 75.0592 87.7833 74.7453C88.4805 73.7419 88.7926 72.5207 88.6625 71.3058C88.6504 69.6676 88.3209 68.5396 87.6741 67.9219C87.389 67.6319 87.049 67.4016 86.674 67.2444C86.299 67.0872 85.8964 67.0062 85.4897 67.0063C85.0401 66.9835 84.5923 67.0792 84.1912 67.2838C83.7901 67.4884 83.4498 67.7948 83.2043 68.1722C82.631 69.2325 82.3741 70.4351 82.4644 71.6371Z" fill="#1C3554"/>
<path d="M95.5117 73.4967C95.4789 72.5288 95.6443 71.5645 95.9977 70.6628C96.3511 69.7611 96.8851 68.9412 97.5668 68.2534C98.9357 66.8922 100.784 66.1223 102.714 66.1091C104.645 66.0958 106.503 66.8402 107.891 68.1824C108.581 68.8597 109.126 69.6706 109.493 70.5654C109.86 71.4603 110.04 72.4205 110.024 73.3875C110.085 74.3889 109.93 75.3916 109.57 76.3279C109.209 77.2642 108.652 78.1123 107.936 78.8147C106.557 80.1272 104.719 80.8479 102.816 80.8225C101.872 80.8503 100.932 80.6918 100.049 80.3562C99.1664 80.0206 98.3585 79.5145 97.6715 78.8666C96.9519 78.1754 96.3872 77.3394 96.0149 76.4136C95.6426 75.4879 95.4711 74.4937 95.5117 73.4967ZM98.2722 73.5595C98.2904 75.9757 98.6963 77.6658 99.49 78.63C99.9166 79.0858 100.433 79.4482 101.007 79.6944C101.58 79.9406 102.199 80.0653 102.823 80.0605C103.447 80.0557 104.064 79.9216 104.634 79.6666C105.204 79.4116 105.714 79.0413 106.134 78.579C106.897 77.6045 107.27 75.9086 107.252 73.4913C107.232 71.0976 106.838 69.3941 106.069 68.3808C105.651 67.9045 105.137 67.5235 104.559 67.2638C103.982 67.0041 103.355 66.8717 102.722 66.8756C102.089 66.8795 101.464 67.0195 100.89 67.2863C100.316 67.5531 99.8057 67.9404 99.3944 68.4217C98.6275 69.4448 98.2534 71.1586 98.2722 73.5632V73.5595Z" fill="#1C3554"/>
<path d="M116.872 65.5657L116.945 75.3552C116.956 76.8515 116.987 77.7941 117.036 78.1831C117.051 78.3586 117.104 78.5289 117.191 78.682C117.278 78.8352 117.397 78.9677 117.541 79.0705C118.011 79.3144 118.541 79.4174 119.069 79.3672H119.433L119.439 80.1563L111.879 80.2127L111.872 79.4236L112.456 79.419C113.009 79.4821 113.568 79.3536 114.038 79.055C114.275 78.8329 114.425 78.5338 114.461 78.2113C114.499 77.8854 114.512 76.9395 114.5 75.3734L114.46 71.1212C114.515 70.1092 114.43 69.0945 114.207 68.1059C114.156 67.9548 114.075 67.816 113.967 67.6985C113.86 67.5811 113.729 67.4876 113.582 67.4242C113.143 67.3156 112.689 67.273 112.237 67.2977H111.774L111.768 66.5086C113.374 66.3766 114.96 66.0595 116.493 65.5638L116.872 65.5657ZM113.504 58.4237C113.499 58.1876 113.542 57.9529 113.631 57.7339C113.719 57.5148 113.851 57.316 114.018 57.1495C114.179 56.9772 114.373 56.8402 114.589 56.7471C114.805 56.654 115.038 56.6069 115.273 56.6089C115.508 56.6032 115.74 56.6467 115.957 56.7366C116.173 56.8264 116.368 56.9605 116.529 57.1304C116.697 57.2955 116.829 57.4924 116.919 57.7095C117.009 57.9266 117.054 58.1596 117.053 58.3946C117.059 58.6326 117.018 58.8695 116.931 59.0913C116.845 59.3131 116.715 59.5154 116.549 59.6861C116.39 59.858 116.197 59.9948 115.982 60.0877C115.767 60.1806 115.536 60.2277 115.302 60.2258C115.066 60.2308 114.833 60.1871 114.615 60.0973C114.397 60.0076 114.201 59.8737 114.037 59.7043C113.868 59.5375 113.733 59.3381 113.642 59.118C113.551 58.898 113.506 58.6618 113.509 58.4237H113.504Z" fill="#1C3554"/>
<path d="M124.329 65.5085H124.793C125.006 66.2605 125.11 67.0395 125.101 67.8212C125.76 67.0881 126.556 66.4908 127.445 66.0628C128.693 65.4974 130.086 65.3303 131.433 65.5842C132.78 65.8381 134.016 66.5006 134.973 67.4817C136.318 68.9487 137.029 70.8876 136.951 72.8762C137.031 74.8891 136.352 76.8585 135.047 78.3935C134.418 79.1241 133.633 79.705 132.75 80.0941C131.868 80.4831 130.91 80.6705 129.946 80.6425C129.087 80.6514 128.236 80.48 127.448 80.1392C126.607 79.7679 125.839 79.2481 125.181 78.6047L125.221 83.9363C125.203 84.9259 125.242 85.9157 125.339 86.9007C125.364 87.0655 125.427 87.2224 125.521 87.3598C125.616 87.4972 125.74 87.6115 125.885 87.6943C126.412 87.9096 126.982 87.9963 127.549 87.9473L127.556 88.7364L120.218 88.7874L120.212 87.9983H120.726C121.28 88.0608 121.839 87.9324 122.31 87.6342C122.547 87.4128 122.697 87.1133 122.731 86.7905C122.769 86.4659 122.782 85.5203 122.77 83.9536L122.675 71.1988C122.664 69.7025 122.636 68.7596 122.593 68.37C122.581 68.1949 122.53 68.0246 122.444 67.8714C122.359 67.7181 122.24 67.5857 122.098 67.4835C121.627 67.2394 121.097 67.1363 120.569 67.1868H120.056L120.049 66.3977C121.496 66.2118 122.927 65.9145 124.329 65.5085ZM125.174 77.4697C125.719 78.1543 126.389 78.7283 127.15 79.1608C127.819 79.5326 128.573 79.7248 129.339 79.7187C129.991 79.7079 130.632 79.5507 131.215 79.2586C131.798 78.9665 132.307 78.547 132.706 78.0313C133.658 76.9142 134.125 75.1446 134.106 72.7224C134.224 71.0328 133.717 69.3588 132.683 68.0178C132.276 67.5332 131.768 67.1443 131.194 66.879C130.62 66.6137 129.995 66.4786 129.362 66.4833C128.574 66.4887 127.801 66.7015 127.121 67.1004C126.338 67.5749 125.654 68.1968 125.108 68.9316L125.174 77.4697Z" fill="#1C3554"/>
<path d="M139.819 80.4457L139.785 75.8349L140.454 75.8285C141.25 78.4855 142.649 79.8068 144.65 79.7922C145.014 79.8165 145.378 79.7566 145.714 79.6172C146.051 79.4779 146.35 79.2627 146.59 78.9886C146.999 78.5028 147.222 77.8878 147.22 77.2529C147.229 76.922 147.172 76.5925 147.052 76.2841C146.932 75.9756 146.751 75.6944 146.52 75.4572C145.694 74.7686 144.771 74.2041 143.782 73.7816C142.647 73.2893 141.609 72.6004 140.714 71.7465C140.091 71.0866 139.753 70.2089 139.77 69.3018C139.779 68.3307 140.124 67.3925 140.745 66.646C141.074 66.2263 141.498 65.8911 141.982 65.6682C142.466 65.4454 142.997 65.3412 143.529 65.3645C144.117 65.3524 144.699 65.4792 145.228 65.7344C145.758 65.9896 146.22 66.3662 146.576 66.8335C146.86 66.4514 147.082 66.0273 147.234 65.5766H147.871L147.903 69.9144L147.266 69.9189C147.053 68.9266 146.589 68.0058 145.917 67.2449C145.635 66.8992 145.28 66.6206 144.877 66.4295C144.473 66.2383 144.033 66.1394 143.586 66.14C143.281 66.129 142.976 66.1808 142.69 66.2921C142.405 66.4034 142.146 66.5718 141.928 66.7871C141.729 66.9779 141.57 67.2076 141.463 67.462C141.356 67.7164 141.303 67.9901 141.306 68.2661C141.306 68.5663 141.369 68.8632 141.492 69.1371C141.615 69.411 141.795 69.6557 142.019 69.8552C142.809 70.5074 143.698 71.0274 144.654 71.3952C146.605 72.2616 147.8 73.1111 148.239 73.9436C148.653 74.6882 148.883 75.5211 148.91 76.3728C148.935 76.9267 148.843 77.4797 148.639 77.9953C148.435 78.511 148.124 78.9776 147.727 79.3644C147.323 79.7499 146.847 80.0518 146.326 80.2528C145.806 80.4538 145.25 80.55 144.692 80.5358C144.038 80.5346 143.391 80.3943 142.794 80.1241C142.198 79.8539 141.666 79.46 141.234 78.9685C140.881 79.4018 140.627 79.9069 140.49 80.4484L139.819 80.4457Z" fill="#1C3554"/>
<path d="M165.254 65.7666L165.324 74.9728C165.335 76.5042 165.365 77.4638 165.415 77.8516C165.429 78.0263 165.482 78.1955 165.571 78.3466C165.66 78.4976 165.782 78.6265 165.928 78.7235C166.417 78.9556 166.959 79.0518 167.498 79.002L167.504 79.7911C166.213 79.752 164.925 79.9472 163.703 80.3672H163.497C163.043 79.3454 162.835 78.2312 162.89 77.1143C162.296 78.1072 161.485 78.9519 160.516 79.5845C159.625 80.139 158.597 80.4314 157.547 80.4282C156.676 80.4526 155.815 80.2372 155.057 79.8057C154.406 79.4586 153.882 78.9128 153.562 78.2475C153.242 77.3532 153.098 76.4057 153.138 75.457L153.102 70.6741C153.118 69.6812 153.082 68.688 152.994 67.6988C152.972 67.533 152.911 67.3748 152.816 67.2371C152.721 67.0995 152.595 66.9863 152.448 66.907C151.916 66.6991 151.343 66.6154 150.774 66.6622L150.768 65.8731L155.533 65.8367L155.607 75.5753C155.588 76.278 155.652 76.9805 155.795 77.6686C155.942 78.1408 156.255 78.5436 156.677 78.8018C157.158 79.1271 157.729 79.2936 158.31 79.2778C159.221 79.2596 160.102 78.9495 160.824 78.3931C161.516 77.9299 162.076 77.2936 162.447 76.5473C162.772 75.6608 162.914 74.7172 162.863 73.7741L162.84 70.6031C162.829 69.0717 162.805 68.14 162.767 67.8081C162.728 67.4764 162.571 67.17 162.323 66.9462C161.845 66.6451 161.278 66.519 160.717 66.5894H160.353L160.348 65.8003L165.254 65.7666Z" fill="#1C3554"/>
<path d="M173.204 65.1406H173.375C173.744 66.0769 173.92 67.078 173.894 68.084C174.555 67.1837 175.39 66.4259 176.351 65.856C177.219 65.3607 178.2 65.0989 179.2 65.096C180.198 65.042 181.188 65.3114 182.021 65.8642C182.788 66.4482 183.328 67.2805 183.548 68.2187C184.284 67.2705 185.184 66.4621 186.205 65.8323C187.046 65.3193 188.008 65.0396 188.992 65.0223C189.967 64.9841 190.931 65.2397 191.759 65.7559C192.418 66.1298 192.913 66.7385 193.143 67.4606C193.345 68.4814 193.433 69.5213 193.406 70.5615L193.438 74.7791C193.42 75.7744 193.459 76.7699 193.555 77.7607C193.58 77.9257 193.643 78.0825 193.739 78.2188C193.835 78.3551 193.962 78.4672 194.109 78.5462C194.647 78.755 195.225 78.8381 195.8 78.7892L195.805 79.5783L188.797 79.632L188.792 78.8429C189.327 78.8761 189.862 78.7871 190.357 78.5826C190.501 78.5068 190.626 78.3989 190.721 78.2673C190.817 78.1357 190.881 77.9839 190.909 77.8235C191 76.8178 191.027 75.8073 190.989 74.7982L190.954 70.1173C190.966 69.3991 190.905 68.6816 190.772 67.9757C190.645 67.4751 190.339 67.038 189.913 66.7461C189.389 66.3883 188.761 66.2124 188.127 66.2455C187.323 66.2717 186.545 66.5407 185.896 67.0173C185.026 67.652 184.269 68.4286 183.658 69.3146L183.7 74.8528C183.711 76.3491 183.738 77.2896 183.781 77.6743C183.794 77.8486 183.844 78.0181 183.928 78.1714C184.012 78.3246 184.128 78.458 184.268 78.5626C184.727 78.8135 185.25 78.9201 185.77 78.8684L185.777 79.6575L178.987 79.7085L178.981 78.9194C179.527 78.9531 180.073 78.8674 180.582 78.6682C180.726 78.595 180.851 78.4902 180.948 78.3617C181.045 78.2332 181.112 78.0844 181.143 77.9264C181.243 76.9121 181.274 75.8922 181.234 74.8737L181.204 70.9819C181.218 70.0849 181.163 69.1882 181.038 68.2997C180.929 67.7325 180.61 67.2271 180.145 66.8835C179.618 66.4827 178.968 66.2786 178.306 66.3065C177.533 66.3318 176.783 66.5747 176.142 67.0073C175.292 67.5779 174.537 68.2778 173.904 69.0816L173.948 74.9284C173.959 76.4708 173.989 77.431 174.039 77.809C174.055 77.9814 174.11 78.1478 174.2 78.2957C174.29 78.4435 174.413 78.5687 174.559 78.6618C175.057 78.894 175.609 78.9904 176.156 78.9412L176.162 79.7303L169.288 79.7813L169.282 78.9922C169.823 79.0261 170.364 78.9371 170.866 78.7319C171.008 78.6571 171.132 78.5508 171.228 78.421C171.323 78.2912 171.388 78.1414 171.417 77.9828C171.508 76.9737 171.535 75.9599 171.497 74.9475L171.465 70.7471C171.454 69.1459 171.421 68.1656 171.366 67.8064C171.346 67.6389 171.286 67.4784 171.193 67.3378C171.1 67.1972 170.975 67.0803 170.828 66.9964C170.312 66.7766 169.749 66.6866 169.19 66.7343L169.184 65.9452C170.549 65.8241 171.897 65.5543 173.204 65.1406Z" fill="#1C3554"/>
<path d="M183.022 49.1653H149.941V16.0859C158.715 16.0859 167.129 19.571 173.332 25.7746C179.536 31.9782 183.021 40.392 183.022 49.1653Z" fill="#1C3554"/>
<path d="M82.8233 49.1653H66.2832V32.6252C66.2834 28.2386 68.0262 24.0318 71.128 20.9301C74.2299 17.8284 78.4368 16.0859 82.8233 16.0859C84.9954 16.0858 87.1462 16.5135 89.1529 17.3447C91.1597 18.1758 92.983 19.394 94.5189 20.9298C96.0548 22.4657 97.2732 24.289 98.1044 26.2957C98.9357 28.3024 99.3635 30.4531 99.3635 32.6252C99.3635 37.0119 97.6209 41.2189 94.519 44.3208C91.4171 47.4227 87.2101 49.1653 82.8233 49.1653Z" fill="#1C3554"/>
<path d="M141.248 49.1655H108.168L108.057 15.9751L130.753 38.6706L141.248 49.1655Z" fill="#1C3554"/>
</g>
<defs>
<clipPath id="clip0_60_394">
<rect width="249.6" height="104" fill="white" transform="translate(0.199219 0.375)"/>
</clipPath>
</defs>
</svg>
