<svg width="250" height="105" viewBox="0 0 250 105" fill="none" xmlns="http://www.w3.org/2000/svg">
<g opacity="0.5" clip-path="url(#clip0_60_397)">
<path d="M26.1992 45.873V53.0932C28.6665 53.0915 31.1099 53.5763 33.3896 54.5199C35.6693 55.4634 37.7405 56.8473 39.4849 58.5922C41.2288 60.3365 42.6118 62.4074 43.5548 64.6865C44.4978 66.9656 44.9824 69.4082 44.9808 71.8748H52.1958C52.1893 64.9816 49.4484 58.3725 44.5747 53.4978C39.7009 48.6231 33.0924 45.8809 26.1992 45.873H26.1992Z" fill="#1C3554"/>
<path d="M62.2818 32.875H50.8477C56.632 36.5406 61.5332 41.4412 65.1997 47.225V35.7908C65.1991 35.0173 64.8915 34.2756 64.3443 33.7289C63.7972 33.1821 63.0553 32.875 62.2818 32.875Z" fill="#1C3554"/>
<path d="M33.3834 32.875H26.1992V39.3757C34.8159 39.3846 43.0771 42.8115 49.1702 48.9044C55.2632 54.9972 58.6903 63.2583 58.6996 71.875H65.1992V64.6908C63.7297 56.7949 59.9035 49.529 54.2243 43.8499C48.5452 38.1708 41.2794 34.3446 33.3834 32.875Z" fill="#1C3554"/>
<path d="M82.8841 37.168H78.3047V60.2498H82.8841V37.168Z" fill="#1C3554"/>
<path d="M99.7211 47.1683C98.9587 46.4753 98.0664 45.9405 97.0958 45.595C95.0108 44.8629 92.7386 44.8629 90.6536 45.595C89.6826 45.9403 88.7899 46.4751 88.0273 47.1683C87.2794 47.8578 86.6819 48.6943 86.2723 49.6253C85.8489 50.6411 85.6309 51.7306 85.6309 52.831C85.6309 53.9315 85.8489 55.021 86.2723 56.0367C86.6804 56.9705 87.278 57.8092 88.0273 58.4999C88.7885 59.1936 89.6808 59.7282 90.6515 60.0722C92.7363 60.8056 95.009 60.8056 97.0937 60.0722C98.0648 59.7282 98.9574 59.1936 99.719 58.4999C100.468 57.809 101.066 56.9703 101.474 56.0367C101.897 55.021 102.115 53.9315 102.115 52.831C102.115 51.7306 101.897 50.6411 101.474 49.6253C101.065 48.6946 100.468 47.8582 99.7211 47.1683ZM96.5765 55.5492C95.8349 56.2172 94.8722 56.5869 93.8742 56.5869C92.8761 56.5869 91.9134 56.2172 91.1719 55.5492C90.5486 54.7798 90.2085 53.8197 90.2085 52.8295C90.2085 51.8393 90.5486 50.8792 91.1719 50.1098C91.9134 49.4418 92.8761 49.0721 93.8742 49.0721C94.8722 49.0721 95.8349 49.4418 96.5765 50.1098C97.1997 50.8792 97.5398 51.8393 97.5398 52.8295C97.5398 53.8197 97.1997 54.7798 96.5765 55.5492Z" fill="#1C3554"/>
<path d="M116.162 47.3663H116.104C115.892 47.069 115.646 46.7976 115.371 46.5576C115.038 46.2628 114.669 46.0111 114.273 45.8084C113.272 45.2948 112.161 45.0331 111.036 45.0458C110.05 45.0286 109.075 45.2542 108.197 45.7027C107.379 46.1263 106.657 46.7136 106.075 47.4279C105.482 48.1642 105.026 49.0019 104.731 49.9003C104.418 50.8259 104.258 51.7967 104.258 52.774C104.247 53.823 104.423 54.8657 104.778 55.8529C105.099 56.7539 105.601 57.58 106.251 58.2812C106.9 58.9674 107.687 59.5079 108.56 59.8669C109.509 60.2538 110.526 60.4457 111.551 60.4313C112.31 60.4183 113.059 60.2684 113.764 59.989C114.555 59.6891 115.24 59.1634 115.734 58.4772H115.795V59.9141C115.812 60.3933 115.733 60.8712 115.563 61.3194C115.392 61.7677 115.134 62.1772 114.803 62.524C114.382 62.8959 113.891 63.1786 113.358 63.355C112.825 63.5314 112.262 63.5979 111.703 63.5503C110.817 63.5602 109.938 63.3833 109.124 63.031C108.315 62.6692 107.559 62.1967 106.88 61.627L104.346 65.409C105.381 66.2432 106.592 66.833 107.887 67.1342C109.169 67.4289 110.48 67.5773 111.796 67.5766C114.686 67.5766 116.838 66.8489 118.252 65.3936C119.666 63.9383 120.374 61.8063 120.375 58.9976V45.4122H116.167L116.162 47.3663ZM115.887 54.1287C115.706 54.5632 115.441 54.9577 115.108 55.2895C114.768 55.6279 114.37 55.9019 113.932 56.0982C113.478 56.2999 112.987 56.4041 112.49 56.4041C111.993 56.4041 111.502 56.2999 111.047 56.0982C110.616 55.8991 110.223 55.6254 109.887 55.2895C109.552 54.9548 109.286 54.5574 109.105 54.12C108.923 53.6826 108.83 53.2137 108.83 52.7401C108.83 52.2666 108.923 51.7977 109.105 51.3603C109.286 50.9228 109.552 50.5254 109.887 50.1908C110.223 49.8549 110.616 49.5808 111.047 49.381C111.502 49.18 111.993 49.0762 112.49 49.0762C112.987 49.0762 113.478 49.18 113.932 49.381C114.37 49.5781 114.768 49.8524 115.108 50.1908C115.611 50.6971 115.954 51.3412 116.093 52.0419C116.231 52.7426 116.16 53.4687 115.887 54.1287Z" fill="#1C3554"/>
<path d="M137.579 47.1683C136.816 46.4753 135.924 45.9405 134.953 45.595C132.868 44.8629 130.596 44.8629 128.511 45.595C127.54 45.9403 126.647 46.4751 125.885 47.1683C125.137 47.8578 124.539 48.6943 124.13 49.6253C123.706 50.6411 123.488 51.7306 123.488 52.831C123.488 53.9315 123.706 55.021 124.13 56.0367C124.538 56.9705 125.135 57.8092 125.885 58.4999C126.647 59.1939 127.54 59.7285 128.511 60.0722C130.596 60.8056 132.868 60.8056 134.953 60.0722C135.924 59.7282 136.817 59.1936 137.579 58.4999C138.328 57.8092 138.925 56.9705 139.334 56.0367C139.757 55.021 139.975 53.9315 139.975 52.831C139.975 51.7306 139.757 50.6411 139.334 49.6253C138.924 48.6943 138.326 47.8578 137.579 47.1683ZM134.434 55.5492C133.692 56.2172 132.73 56.5869 131.732 56.5869C130.734 56.5869 129.771 56.2172 129.029 55.5492C128.406 54.7798 128.066 53.8197 128.066 52.8295C128.066 51.8393 128.406 50.8792 129.029 50.1098C129.771 49.4418 130.734 49.0721 131.732 49.0721C132.73 49.0721 133.692 49.4418 134.434 50.1098C135.057 50.8792 135.397 51.8393 135.397 52.8295C135.397 53.8197 135.057 54.7798 134.434 55.5492Z" fill="#1C3554"/>
<path d="M146.05 45.5151H143.594V60.25H146.05V45.5151Z" fill="#1C3554"/>
<path d="M144.822 37.9593C144.584 37.9548 144.347 38 144.128 38.0921C143.908 38.1841 143.71 38.321 143.546 38.494C143.297 38.7458 143.127 39.0658 143.059 39.4138C142.991 39.7618 143.027 40.1222 143.164 40.4495C143.3 40.7768 143.53 41.0565 143.825 41.2532C144.12 41.4499 144.467 41.5549 144.821 41.5549C145.176 41.5549 145.523 41.4499 145.818 41.2532C146.113 41.0565 146.343 40.7768 146.479 40.4495C146.616 40.1222 146.652 39.7618 146.584 39.4138C146.516 39.0658 146.346 38.7458 146.097 38.494C145.933 38.321 145.735 38.184 145.516 38.0919C145.296 37.9998 145.06 37.9547 144.822 37.9593Z" fill="#1C3554"/>
<path d="M164.218 47.3462C163.527 46.6408 162.696 46.0881 161.778 45.7236C160.771 45.3266 159.696 45.129 158.614 45.1417C157.594 45.13 156.586 45.3567 155.669 45.8037C154.767 46.2526 153.968 46.8849 153.323 47.6603H153.258V45.5153H150.805V67.4292H153.258V57.6381H153.32C153.842 58.5361 154.601 59.2721 155.515 59.7646C156.577 60.3588 157.778 60.6579 158.994 60.6309C159.989 60.6371 160.975 60.4387 161.891 60.0479C162.775 59.6729 163.573 59.1211 164.236 58.4263C164.909 57.7163 165.439 56.8826 165.795 55.9714C166.55 53.9833 166.55 51.7872 165.795 49.7991C165.436 48.8857 164.9 48.0522 164.218 47.3462ZM163.351 55.0436C163.122 55.6852 162.764 56.2729 162.299 56.7706C161.834 57.2682 161.272 57.6651 160.647 57.9368C159.266 58.5024 157.718 58.5024 156.337 57.9368C155.711 57.6651 155.148 57.2679 154.682 56.7697C154.216 56.2715 153.858 55.6829 153.629 55.0405C153.147 53.6441 153.147 52.1264 153.629 50.73C153.858 50.0876 154.216 49.499 154.682 49.0008C155.148 48.5026 155.711 48.1053 156.337 47.8337C157.718 47.2681 159.266 47.2681 160.647 47.8337C161.273 48.1053 161.836 48.5026 162.301 49.0008C162.767 49.499 163.126 50.0876 163.354 50.73C163.837 52.1264 163.837 53.6441 163.354 55.0405L163.351 55.0436Z" fill="#1C3554"/>
<path d="M178.733 52.888C178.266 52.539 177.746 52.268 177.193 52.0854C176.586 51.8805 175.965 51.7173 175.336 51.5969C174.864 51.5162 174.396 51.4114 173.935 51.2828C173.524 51.1712 173.123 51.0235 172.738 50.8415C172.43 50.7016 172.151 50.5037 171.917 50.2586C171.718 50.0393 171.611 49.7519 171.618 49.456C171.613 49.1366 171.707 48.8234 171.886 48.559C172.063 48.2977 172.293 48.0776 172.563 47.9134C172.851 47.7393 173.164 47.6118 173.492 47.5357C173.828 47.4526 174.173 47.4103 174.519 47.4095C175.177 47.389 175.827 47.5586 176.392 47.898C176.901 48.2186 177.328 48.6555 177.636 49.1727L179.682 47.819C179.229 46.9243 178.492 46.2044 177.587 45.7715C176.676 45.348 175.681 45.1331 174.676 45.1424C173.994 45.1408 173.316 45.2361 172.661 45.4256C172.033 45.6046 171.438 45.8817 170.897 46.2467C170.379 46.596 169.949 47.0591 169.638 47.6004C169.315 48.1768 169.152 48.8286 169.165 49.4888C169.14 50.1351 169.286 50.7766 169.59 51.3475C169.868 51.825 170.255 52.2296 170.719 52.5277C171.232 52.8513 171.789 53.1004 172.372 53.2677C173.002 53.4566 173.663 53.6245 174.355 53.7716C174.755 53.8558 175.143 53.9502 175.52 54.0549C175.874 54.1498 176.213 54.2928 176.528 54.4798C176.806 54.6445 177.047 54.8641 177.236 55.1253C177.426 55.4147 177.519 55.756 177.504 56.1014C177.516 56.4642 177.417 56.822 177.221 57.1277C177.025 57.4174 176.767 57.6594 176.466 57.8359C176.139 58.0304 175.783 58.1692 175.411 58.2464C175.033 58.3293 174.648 58.3716 174.261 58.3726C173.496 58.4022 172.738 58.2166 172.073 57.8369C171.461 57.4477 170.923 56.9536 170.483 56.3775L168.533 57.8892C169.137 58.8266 169.994 59.5739 171.005 60.0445C172.041 60.4557 173.149 60.6539 174.263 60.6274C174.989 60.628 175.712 60.5436 176.418 60.376C177.09 60.2207 177.73 59.9491 178.308 59.5734C178.86 59.2068 179.317 58.7144 179.642 58.1366C179.995 57.4808 180.169 56.744 180.147 55.9998C180.167 55.36 180.038 54.7243 179.769 54.1432C179.525 53.6505 179.17 53.2209 178.733 52.888Z" fill="#1C3554"/>
<path d="M196.426 56.7553V45.5151H193.97V52.6993C193.978 53.4739 193.888 54.2463 193.702 54.9983C193.545 55.6429 193.266 56.2517 192.881 56.7923C192.516 57.2948 192.028 57.6958 191.464 57.9572C190.815 58.2451 190.111 58.3854 189.402 58.3677C188.922 58.4065 188.44 58.3295 187.996 58.1432C187.553 57.9569 187.16 57.6668 186.852 57.2972C186.262 56.4389 185.973 55.4091 186.031 54.3692V45.5151H183.575V54.6145C183.567 55.4393 183.678 56.2609 183.905 57.054C184.103 57.7571 184.453 58.4079 184.931 58.9599C185.41 59.4995 186.007 59.921 186.676 60.1915C187.473 60.5025 188.324 60.6525 189.179 60.6328C189.755 60.6374 190.328 60.5575 190.88 60.3957C191.378 60.2505 191.854 60.0389 192.296 59.7666C192.698 59.5191 193.063 59.2173 193.382 58.8696C193.669 58.5602 193.908 58.2098 194.091 57.8299H194.154C194.154 58.2507 194.164 58.6612 194.186 59.0615C194.207 59.4617 194.217 59.8606 194.216 60.2582H196.547C196.547 59.7744 196.526 59.239 196.484 58.652C196.441 58.0649 196.422 57.4327 196.426 56.7553Z" fill="#1C3554"/>
<path d="M222.968 48.7429C222.804 48.0299 222.481 47.3632 222.023 46.7929C221.561 46.241 220.964 45.8169 220.291 45.5613C219.444 45.2555 218.547 45.1114 217.647 45.1364C216.669 45.0937 215.702 45.352 214.876 45.8764C214.11 46.4257 213.467 47.1282 212.987 47.9393C212.861 47.6868 212.698 47.398 212.499 47.073C212.276 46.7221 211.994 46.413 211.664 46.1596C211.26 45.8521 210.81 45.6097 210.33 45.4412C209.686 45.2247 209.009 45.1232 208.33 45.1415C207.755 45.1368 207.182 45.2167 206.63 45.3786C206.132 45.5238 205.655 45.7354 205.213 46.0077C204.811 46.2555 204.446 46.5573 204.127 46.9047C203.84 47.2141 203.602 47.5645 203.419 47.9444H203.355C203.355 47.5236 203.345 47.1151 203.324 46.7128C203.304 46.3105 203.293 45.9154 203.293 45.5161H200.963C200.963 45.9999 200.984 46.5353 201.025 47.1223C201.067 47.7094 201.088 48.3392 201.088 49.0118V60.2509H203.546V53.0729C203.538 52.298 203.628 51.5253 203.814 50.7729C203.971 50.128 204.249 49.5191 204.635 48.9789C205 48.4762 205.488 48.0752 206.051 47.814C206.7 47.5259 207.405 47.3857 208.114 47.4035C208.535 47.3676 208.957 47.4437 209.338 47.6239C209.72 47.8042 210.047 48.0823 210.286 48.4298C210.813 49.5097 211.042 50.711 210.948 51.909V60.253H213.399V51.7489C213.392 51.1429 213.493 50.5405 213.698 49.9703C213.88 49.4649 214.159 48.9998 214.519 48.6012C214.859 48.2281 215.272 47.9282 215.732 47.7196C216.196 47.5092 216.701 47.4017 217.212 47.4046C217.818 47.3825 218.421 47.5009 218.975 47.7504C219.411 47.9611 219.789 48.275 220.076 48.6649C220.353 49.0508 220.546 49.4902 220.644 49.9549C220.749 50.4412 220.801 50.9374 220.801 51.4349V60.2509H223.251V51.3087C223.26 50.4451 223.165 49.5836 222.968 48.7429Z" fill="#1C3554"/>
</g>
<defs>
<clipPath id="clip0_60_397">
<rect width="249.6" height="104" fill="white" transform="translate(0.199219 0.375)"/>
</clipPath>
</defs>
</svg>
