<svg width="250" height="105" viewBox="0 0 250 105" fill="none" xmlns="http://www.w3.org/2000/svg">
<g opacity="0.7" clip-path="url(#clip0_60_399)">
<path d="M61.9922 58.178C62.7515 56.5824 63.1267 54.8312 63.0879 53.0646C63.1744 51.3452 62.7622 49.6374 61.9009 48.1467C61.1371 46.9523 60.1094 45.9493 58.8968 45.2147C57.677 44.4823 56.3657 43.9143 54.997 43.5255C53.6054 43.128 52.3052 42.7323 51.0962 42.3385C50.0284 42.0094 49.0153 41.5235 48.0903 40.8967C47.7028 40.6248 47.3906 40.259 47.183 39.8335C46.9754 39.4081 46.8792 38.937 46.9033 38.4642C46.885 37.8626 47.059 37.2709 47.4 36.775C47.7366 36.3056 48.1793 35.9224 48.692 35.6564C49.2243 35.3739 49.7926 35.1653 50.3813 35.0364C50.9505 34.9069 51.5323 34.8402 52.1161 34.8374C53.1596 34.8528 54.1929 35.0461 55.1714 35.409C56.1744 35.7406 57.0616 36.3524 57.728 37.1721L63.0432 31.3594C61.5972 30.0611 59.8847 29.0949 58.0257 28.5288C56.1571 27.9641 54.2152 27.6794 52.2631 27.6841C50.565 27.6811 48.8753 27.9238 47.2466 28.4046C45.6889 28.8463 44.228 29.5763 42.9395 30.5567C41.6974 31.5177 40.6803 32.7383 39.9591 34.1334C39.1874 35.6736 38.8037 37.3791 38.8415 39.1015C38.7616 40.7623 39.1855 42.4085 40.0578 43.8241C40.8514 44.9984 41.8955 45.9823 43.1148 46.7049C44.3629 47.444 45.6973 48.0266 47.0877 48.4398C48.5109 48.8708 49.8355 49.3015 51.0615 49.7318C52.1543 50.0941 53.185 50.622 54.1177 51.2969C54.5099 51.5838 54.8258 51.9624 55.0379 52.3997C55.2499 52.837 55.3515 53.3195 55.3339 53.8052C55.3492 54.3883 55.1851 54.962 54.8637 55.4487C54.5421 55.9178 54.1177 56.3073 53.6228 56.5874C53.0812 56.8966 52.4964 57.1231 51.8879 57.2594C49.9828 57.705 47.9822 57.4766 46.2267 56.6129C45.0359 56.0527 44.0011 55.2082 43.2134 54.154L37.6992 60.2142C39.2722 61.6998 41.1313 62.8493 43.1632 63.5927C45.2074 64.3035 47.3588 64.6569 49.5229 64.6373C51.277 64.6454 53.0239 64.4113 54.7139 63.9415C56.2788 63.5147 57.7464 62.7892 59.0356 61.8048C60.284 60.8363 61.2952 59.5959 61.9922 58.178Z" fill="#1C3554"/>
<path d="M65.6172 35.4254H75.6531V63.7415H83.4016V35.4254H93.4366V28.5698H65.6172V35.4254Z" fill="#1C3554"/>
<path d="M151.835 32.6705C149.8 31.182 147.488 30.1167 145.034 29.5376C142.341 28.8814 139.579 28.5563 136.807 28.5697H119.268V49.8806C119.278 50.9139 119.102 51.9406 118.747 52.9111C118.421 53.8031 117.923 54.6222 117.28 55.3217C116.653 55.9993 115.892 56.5402 115.046 56.9105C114.153 57.2981 113.189 57.4929 112.216 57.4821C111.234 57.4917 110.261 57.297 109.358 56.9105C108.502 56.5448 107.732 56.0035 107.099 55.3217C106.457 54.6217 105.959 53.8027 105.632 52.9111C105.277 51.9406 105.101 50.9139 105.111 49.8806V28.5697H97.3603V50.1791C97.3396 52.1401 97.6591 54.0899 98.3045 55.9417C98.9035 57.6479 99.8602 59.2063 101.11 60.5127C102.421 61.8506 104.008 62.8861 105.761 63.5469C107.432 64.1709 109.193 64.5236 110.976 64.5915L110.913 64.6399H137.881C140.49 64.6511 143.085 64.2556 145.573 63.4675C147.926 62.7367 150.121 61.5702 152.043 60.0287C153.919 58.5076 155.44 56.5955 156.501 54.426C157.645 52.0166 158.211 49.374 158.156 46.7075C158.239 43.8134 157.655 40.9391 156.449 38.307C155.385 36.0852 153.803 34.1519 151.835 32.6705ZM148.905 51.4666C148.294 52.8133 147.358 53.9867 146.18 54.8807C144.957 55.7786 143.56 56.4118 142.078 56.7398C140.4 57.1243 138.682 57.3121 136.96 57.2995H132.833V35.9056H137.52C139.13 35.8991 140.733 36.1142 142.284 36.5447C143.708 36.9286 145.047 37.5769 146.231 38.4559C147.36 39.3141 148.274 40.4212 148.905 41.691C149.596 43.1273 149.936 44.7069 149.898 46.3003C149.95 48.0744 149.611 49.8382 148.905 51.4666Z" fill="#1C3554"/>
<path d="M169.895 28.5698H162.145V63.7415H169.895V28.5698Z" fill="#1C3554"/>
<path d="M211.598 53.805C212.571 51.3735 213.052 48.7735 213.014 46.155C213.052 43.5366 212.571 40.9366 211.598 38.5051C210.71 36.3015 209.364 34.3115 207.649 32.6667C205.919 31.036 203.873 29.7768 201.638 28.9669C196.718 27.2441 191.358 27.2441 186.437 28.9669C184.202 29.7766 182.156 31.0358 180.426 32.6667C178.711 34.3116 177.365 36.3015 176.476 38.5051C175.504 40.9368 175.023 43.5367 175.061 46.155C175.023 48.7734 175.504 51.3733 176.476 53.805C177.365 56.0082 178.711 57.9978 180.426 59.6424C182.155 61.2745 184.201 62.5344 186.437 63.3441C191.358 65.0668 196.718 65.0668 201.638 63.3441C203.874 62.5342 205.92 61.2743 207.649 59.6424C209.364 57.998 210.71 56.0083 211.598 53.805ZM204.202 50.7004C203.716 52.0309 202.963 53.2479 201.99 54.277C201.017 55.2968 199.841 56.101 198.538 56.6374C195.647 57.7636 192.438 57.7636 189.546 56.6374C188.243 56.101 187.067 55.2968 186.095 54.277C185.121 53.2479 184.368 52.0309 183.882 50.7004C182.857 47.7653 182.857 44.5694 183.882 41.6343C184.365 40.2944 185.118 39.0683 186.095 38.0321C187.068 37.014 188.244 36.2107 189.546 35.6736C192.438 34.5474 195.647 34.5474 198.538 35.6736C199.84 36.2107 201.016 37.014 201.99 38.0321C202.967 39.0683 203.72 40.2944 204.202 41.6343C205.226 44.5696 205.226 47.7651 204.202 50.7004Z" fill="#1C3554"/>
<path d="M37.7695 71.0387H39.8021V76.7739H41.3708V71.0387H43.4043V69.6499H37.7695V71.0387Z" fill="#1C3554"/>
<path d="M60.6122 69.6499L57.5332 76.7721H59.2626L59.857 75.2627H62.6237L63.2373 76.7721H65.0087L61.9097 69.6499H60.6122ZM60.3501 73.9415L61.2148 71.7272L62.0905 73.9415H60.3501Z" fill="#1C3554"/>
<path d="M85.8967 74.6007H85.8757L82.8478 69.6499H80.7148V76.7739H82.2845V71.7025H82.3046L85.4137 76.7739H87.4663V69.6499H85.8967V74.6007Z" fill="#1C3554"/>
<path d="M106.251 69.6499L103.172 76.7721H104.902L105.496 75.2627H108.262L108.876 76.7721H110.647L107.548 69.6499H106.251ZM105.989 73.9415L106.853 71.7272L107.729 73.9415H105.989Z" fill="#1C3554"/>
<path d="M130.972 72.307H127.923V69.6499H126.354V76.7739H127.923V73.6949H130.972V76.7739H132.542V69.6499H130.972V72.307Z" fill="#1C3554"/>
<path d="M169.298 69.6499L166.219 76.7721H167.954L168.547 75.2627H171.314L171.927 76.7721H173.699L170.6 69.6499H169.298ZM169.036 73.9415L169.9 71.7272L170.776 73.9415H169.036Z" fill="#1C3554"/>
<path d="M190.949 69.6499H189.379V76.7739H190.949V69.6499Z" fill="#1C3554"/>
<path d="M211.275 73.7651C211.73 73.7001 212.142 73.4599 212.422 73.0958C212.69 72.7241 212.828 72.275 212.815 71.8174C212.827 71.4579 212.753 71.1007 212.599 70.7756C212.463 70.5083 212.262 70.2798 212.014 70.1117C211.754 69.9409 211.464 69.8213 211.16 69.7593C210.82 69.6874 210.474 69.6519 210.128 69.6534H207.371V76.7755H208.942V73.9267H209.717L211.206 76.7737H213.087L211.275 73.7651ZM211.058 72.2557C210.976 72.3622 210.867 72.444 210.741 72.4922C210.605 72.5453 210.46 72.5761 210.314 72.5835C210.156 72.5945 210.007 72.599 209.866 72.599H208.942V70.9783H209.968C210.112 70.9785 210.257 70.9886 210.4 71.0084C210.537 71.0248 210.67 71.064 210.793 71.1244C210.907 71.1809 211.003 71.2655 211.075 71.37C211.154 71.4997 211.193 71.6507 211.185 71.8028C211.195 71.9637 211.15 72.1233 211.058 72.2557Z" fill="#1C3554"/>
</g>
<defs>
<clipPath id="clip0_60_399">
<rect width="249.6" height="104" fill="white" transform="translate(0 0.375)"/>
</clipPath>
</defs>
</svg>
