<svg width="28" height="28" viewBox="0 0 28 28" fill="none" xmlns="http://www.w3.org/2000/svg">
<path fill-rule="evenodd" clip-rule="evenodd" d="M13.9993 26.8334C6.9117 26.8334 1.16602 21.0877 1.16602 14.0001C1.16602 6.91243 6.9117 1.16675 13.9993 1.16675C21.087 1.16675 26.8327 6.91243 26.8327 14.0001C26.8327 21.0877 21.087 26.8334 13.9993 26.8334ZM22.6321 19.9788C23.8094 18.2821 24.4993 16.2217 24.4993 14.0001C24.4993 8.20109 19.7983 3.50008 13.9993 3.50008C8.20036 3.50008 3.49935 8.20109 3.49935 14.0001C3.49935 16.2217 4.1893 18.2821 5.3666 19.9788C6.67963 18.2445 9.76505 17.5001 13.9993 17.5001C18.2336 17.5001 21.3191 18.2445 22.6321 19.9788ZM20.9581 21.8631C20.6167 20.6353 18.1636 19.8334 13.9993 19.8334C9.83507 19.8334 7.38202 20.6353 7.04055 21.8631C8.8932 23.504 11.3299 24.5001 13.9993 24.5001C16.6688 24.5001 19.1055 23.504 20.9581 21.8631ZM13.9993 7.00008C11.175 7.00008 9.33268 9.04847 9.33268 11.6667C9.33268 15.6654 11.387 17.5001 13.9993 17.5001C16.5871 17.5001 18.666 15.7263 18.666 11.9001C18.666 9.24192 16.8159 7.00008 13.9993 7.00008ZM11.666 11.6667C11.666 14.3142 12.6206 15.1667 13.9993 15.1667C15.3733 15.1667 16.3327 14.3482 16.3327 11.9001C16.3327 10.4422 15.4176 9.33341 13.9993 9.33341C12.522 9.33341 11.666 10.2852 11.666 11.6667Z" fill="white"/>
</svg>
